<?xml version="1.0" encoding="UTF-8"?>
<svg id="Capa_1" data-name="Capa 1" xmlns="http://www.w3.org/2000/svg" viewBox="0 0 1080 1080">
  <defs>
    <style>
      .cls-1 {
        fill: #fafbf0;
      }

      .cls-2 {
        fill: none;
      }
    </style>
  </defs>
  <g>
    <g>
      <path class="cls-1" d="M206.63,754.71V365.48c16.55,9.56,33.11,19.12,49.66,28.67v322.88c17.02,9.83,34.05,19.66,51.07,29.49v66.34c-33.58-19.39-67.16-38.77-100.74-58.16Z"/>
      <path class="cls-1" d="M321.48,821.01V431.79c16.56,9.56,33.11,19.12,49.67,28.68v322.88c17.03,9.83,34.05,19.66,51.08,29.49v66.34c-33.58-19.39-67.16-38.77-100.74-58.16Z"/>
      <path class="cls-1" d="M457.35,899.45v-128.04c-13.22-94.69-26.43-189.38-39.65-284.06,16.41,9.48,32.83,18.95,49.24,28.43,4.61,46.59,9.22,93.19,13.83,139.78,4.61-41.27,9.22-82.54,13.83-123.82,16.37,9.45,32.73,18.9,49.1,28.35-13.17,79.45-26.34,158.91-39.5,238.36v128.04c-15.61-9.01-31.23-18.03-46.84-27.04Z"/>
    </g>
    <g>
      <path class="cls-1" d="M559.3,526.81c-111.35-64.29-222.7-128.57-334.04-192.86,33.5-19.34,67-38.68,100.5-58.02,14.88-8.88,32.37-14.79,49.64-15.18,16.79-.39,34.15,2.79,49.86,8.91,18.53,7.21,36.72,16.05,53.63,25.91,13.27,7.74,27.27,16.49,36.86,29.13,6.73,8.86,4.26,20.1-3.01,27.82,11.87-4.54,24.86-5.9,37.34-3.48,13.55,2.63,26.49,8.04,38.41,14.97,42.13,24.33,84.27,48.65,126.4,72.98-21.53,12.43-43.06,24.86-64.58,37.29-43.59-25.17-87.18-50.33-130.77-75.5-9.74-5.63-17.74-7.99-23.99-7.08-6.25,.9-13.72,3.87-22.4,8.88,50.8,29.33,101.6,58.66,152.41,87.99-22.08,12.75-44.17,25.5-66.25,38.25Zm-143.67-159.88c6.33-3.65,9.49-5.48,15.82-9.13,13.5-8.58-11.56-22.19-16.59-25.27-8.64-5.29-18.6-10.91-28.6-13.07-5.9-1.28-11.78-.21-17.24,2.94-6.1,3.52-9.16,5.29-15.26,8.81,20.62,11.91,41.25,23.82,61.87,35.72Z"/>
      <path class="cls-1" d="M819.74,379.95c-24.65,15.04-54.52,22.69-83.74,21.29-31.24-1.5-61.43-13.25-88.35-28.65-81.55-47.08-163.1-94.16-244.65-141.25,21.22-12.25,42.44-24.5,63.66-36.75,80.66,46.57,161.32,93.14,241.99,139.71,5.57,3.22,11.22,6.12,16.97,8.72,5.74,2.6,11.38,4.21,16.9,4.82,5.53,.61,10.77-.52,15.73-3.38,5.09-2.94,7.13-5.98,6.14-9.13-.99-3.15-3.8-6.39-8.43-9.71-4.63-3.32-9.73-6.58-15.3-9.8-80.66-46.57-161.32-93.14-241.99-139.71,21.22-12.25,42.43-24.5,63.65-36.75,81.55,47.08,163.09,94.16,244.64,141.24,19.04,11.61,45.54,26.96,49.63,51.01,3.86,22.69-20.74,38.51-36.86,48.35Z"/>
    </g>
    <g>
      <path class="cls-1" d="M593.1,941.32c2.05-36.44,5.8-72.79,12.02-108.55,5.83-33.51,12.98-67.21,21.25-100.3,7.35-29.39,15.1-58.86,23.17-88.15,5.69-20.74,11.38-41.47,17.07-62.21-28.86,16.66-57.71,33.32-86.57,49.98v-72.01c51.56-29.77,103.12-59.54,154.68-89.31v42.41c-.55,17.31-2.57,34.05-6.1,50.79-4.34,20.6-10.21,41.34-16.03,61.83-13.52,47.51-25.48,95.59-34.4,143.9-8,43.33-13.33,87.33-15.76,131.58-23.11,13.34-46.22,26.68-69.33,40.02Z"/>
      <path class="cls-1" d="M838.2,800.26v-61.63c-30.31,17.5-60.62,35-90.93,52.5v-60.75c19.34-100.11,38.67-200.23,58.01-300.34,31.82-18.37,63.64-36.74,95.46-55.11v262.65c6.55-3.78,9.82-5.67,16.37-9.45v64.95c-6.55,3.78-9.82,5.67-16.37,9.45v61.63c-20.84,12.03-41.69,24.07-62.53,36.1Zm-36.23-105.65c12.08-6.97,24.15-13.95,36.23-20.92v-195.94c-12.08,72.29-24.15,144.57-36.23,216.86Z"/>
    </g>
  </g>
  <rect class="cls-2" x="196" y="135" width="730" height="810"/>
</svg>